<?xml version="1.0" encoding="UTF-8"?>
<svg id="Layer_2" xmlns="http://www.w3.org/2000/svg" xmlns:xlink="http://www.w3.org/1999/xlink" viewBox="0 0 444.91 145.5">
  <defs>
    <style>
      .cls-1 {
        fill: none;
      }

      .cls-2 {
        clip-path: url(#clippath-1);
      }

      .cls-3 {
        clip-path: url(#clippath-3);
      }

      .cls-4 {
        clip-path: url(#clippath-4);
      }

      .cls-5 {
        clip-path: url(#clippath-2);
      }

      .cls-6 {
        fill: #fff;
      }

      .cls-7 {
        fill: #fbf7f0;
      }

      .cls-8 {
        fill: #202020;
      }

      .cls-9 {
        clip-path: url(#clippath);
      }
    </style>
    <clipPath id="clippath">
      <rect class="cls-1" x="209.39" y="66.19" width="41.16" height="30.63"/>
    </clipPath>
    <clipPath id="clippath-1">
      <rect class="cls-1" x="204.14" y="92.36" width="46.4" height="27.81"/>
    </clipPath>
    <clipPath id="clippath-2">
      <rect class="cls-1" x="159.03" y="108.63" width="35.92" height="36.87"/>
    </clipPath>
    <clipPath id="clippath-3">
      <rect class="cls-1" width="257.14" height="78.19"/>
    </clipPath>
    <clipPath id="clippath-4">
      <rect class="cls-1" x="25.98" y="65.86" width="121.22" height="77.93"/>
    </clipPath>
  </defs>
  <g id="Layer_1-2" data-name="Layer_1">
    <g>
      <g>
        <rect class="cls-8" x="278.67" y="42.65" width="166.24" height="60.2" rx="28.52" ry="28.52"/>
        <g>
          <path class="cls-6" d="M301.12,90.36v-35.22h13.21c2.69,0,4.85.36,6.47,1.07,1.63.71,2.9,1.81,3.82,3.29.92,1.48,1.38,3.03,1.38,4.65,0,1.51-.41,2.92-1.23,4.25s-2.05,2.4-3.7,3.22c2.13.63,3.77,1.69,4.91,3.2,1.14,1.51,1.72,3.28,1.72,5.33,0,1.65-.35,3.18-1.05,4.6-.7,1.42-1.56,2.51-2.58,3.28-1.03.77-2.31,1.35-3.86,1.74-1.55.39-3.44.59-5.68.59h-13.43ZM305.78,69.94h7.62c2.07,0,3.55-.14,4.45-.41,1.18-.35,2.08-.94,2.68-1.75.6-.82.9-1.84.9-3.08,0-1.17-.28-2.2-.84-3.09-.56-.89-1.36-1.5-2.4-1.83-1.04-.33-2.83-.49-5.36-.49h-7.04v10.64ZM305.78,86.2h8.77c1.51,0,2.56-.06,3.17-.17,1.07-.19,1.97-.51,2.69-.96.72-.45,1.31-1.1,1.78-1.96.47-.86.7-1.85.7-2.97,0-1.31-.34-2.45-1.01-3.42-.67-.97-1.61-1.65-2.8-2.04s-2.91-.59-5.15-.59h-8.15v12.11Z"/>
          <path class="cls-6" d="M334.23,90.36v-35.22h25.47v4.16h-20.81v10.79h19.48v4.13h-19.48v11.99h21.62v4.16h-26.28Z"/>
          <path class="cls-6" d="M375.91,90.36v-31.07h-11.6v-4.16h27.92v4.16h-11.65v31.07h-4.66Z"/>
          <path class="cls-6" d="M389.49,90.36l13.53-35.22h5.02l14.42,35.22h-5.31l-4.11-10.67h-14.73l-3.87,10.67h-4.95ZM399.65,75.9h11.94l-3.68-9.75c-1.12-2.96-1.95-5.4-2.5-7.3-.45,2.26-1.08,4.5-1.9,6.73l-3.87,10.33Z"/>
        </g>
      </g>
      <g>
        <path class="cls-8" d="M221.16,92.32l-10.94-24.71c-.23-.5.09-.82.73-.78l26.41,2.84c.6.05,1.28.5,1.51,1.01l10.94,24.71c.23.5-.09.82-.73.78l-26.41-2.84c-.6-.09-1.28-.55-1.51-1.01Z"/>
        <g class="cls-9">
          <path class="cls-7" d="M249.26,96.81h-.23l-26.41-2.84c-.87-.09-1.74-.69-2.01-1.37l-10.94-24.71c-.18-.41-.18-.87.09-1.19.27-.37.73-.55,1.33-.5l26.41,2.84c.87.09,1.74.69,2.01,1.37l10.94,24.71c.18.41.18.87-.09,1.19-.27.32-.64.5-1.1.5ZM221.8,92.05c.09.23.55.55.96.59l26.41,2.84-10.89-24.58c-.09-.23-.55-.55-.96-.59l-26.41-2.84,10.89,24.58Z"/>
        </g>
        <path class="cls-8" d="M232.37,119.42l-26.91-2.88c-.55-.05-.69-.5-.32-1.01l15.65-21.46c.37-.5,1.1-.87,1.6-.78l26.91,2.88c.55.05.69.5.32,1.01l-15.6,21.42c-.37.5-1.1.87-1.65.82Z"/>
        <g class="cls-2">
          <path class="cls-7" d="M232.51,120.06h-.18l-26.91-2.88c-.46-.05-.82-.27-1.01-.69-.18-.41-.09-.92.23-1.37l15.65-21.46c.5-.69,1.46-1.14,2.24-1.05l26.91,2.88c.46.05.82.27,1.01.69s.09.92-.23,1.37l-15.7,21.46c-.46.64-1.28,1.05-2.01,1.05ZM232.46,118.73c.27.05.78-.18,1.01-.55l15.65-21.46-26.73-2.84c-.27-.05-.78.18-1.01.55l-15.65,21.46,26.73,2.84Z"/>
        </g>
        <path class="cls-8" d="M204.14,115.53l-10.94-24.71c-.23-.5-.09-1.28.27-1.78l15.65-21.46c.37-.5.82-.5,1.05,0l10.94,24.71c.23.5.09,1.28-.27,1.78l-15.65,21.46c-.37.5-.82.5-1.05,0Z"/>
        <path class="cls-7" d="M204.59,116.58h-.14c-.41-.05-.78-.32-.96-.73l-10.94-24.71c-.32-.69-.18-1.74.32-2.43l15.65-21.46c.32-.46.78-.69,1.24-.64.41.05.78.32.96.73l10.94,24.71c.32.69.18,1.74-.32,2.43l-15.65,21.46c-.27.41-.69.64-1.1.64ZM209.63,67.98l-15.65,21.46c-.23.32-.32.87-.18,1.14l10.89,24.58,15.65-21.46c.23-.32.32-.87.18-1.14l-10.89-24.58Z"/>
        <path class="cls-7" d="M223.31,74.75c-.55-1.24-2.06-2.33-3.39-2.47-.73-.09-1.37.14-1.69.64-.37.46-.37,1.14-.05,1.83.55,1.24,2.06,2.33,3.39,2.47h.27c.59,0,1.1-.23,1.42-.64.32-.5.37-1.14.05-1.83Z"/>
        <path class="cls-7" d="M232.6,81.48c-.55-1.24-2.06-2.33-3.39-2.47-.73-.09-1.37.14-1.69.64-.37.46-.37,1.14-.05,1.83.55,1.24,2.06,2.33,3.39,2.47h.27c.59,0,1.1-.23,1.42-.64.32-.46.32-1.14.05-1.83Z"/>
        <path class="cls-7" d="M236.81,75.76c-.55-1.24-2.06-2.33-3.39-2.47-.73-.09-1.37.14-1.69.64-.37.46-.37,1.14-.05,1.83.55,1.24,2.06,2.33,3.39,2.47h.27c.59,0,1.1-.23,1.42-.64.32-.46.37-1.14.05-1.83Z"/>
        <path class="cls-7" d="M228.44,87.11c-.55-1.24-2.06-2.33-3.39-2.47-.73-.09-1.37.14-1.69.64-.37.46-.37,1.14-.05,1.83.55,1.24,2.06,2.33,3.39,2.47h.27c.59,0,1.1-.23,1.42-.64.32-.46.37-1.1.05-1.83Z"/>
        <path class="cls-7" d="M242.03,88.34c-.55-1.24-2.06-2.33-3.39-2.47-.73-.09-1.37.14-1.69.64-.37.46-.37,1.14-.05,1.83.55,1.24,2.06,2.33,3.39,2.47h.27c.59,0,1.1-.23,1.42-.64.32-.46.37-1.14.05-1.83Z"/>
        <path class="cls-7" d="M231.41,105.87c-.23-.55-.82-.92-1.56-.96-1.37-.14-3.07.6-3.84,1.69-.46.6-.55,1.24-.32,1.79.23.55.82.92,1.56.96h.37c1.28,0,2.75-.73,3.48-1.69.41-.59.55-1.24.32-1.78Z"/>
        <path class="cls-7" d="M210.18,78.46c-.32-.69-.82-1.14-1.42-1.19-.59-.05-1.14.23-1.6.87-.78,1.1-1.01,2.93-.46,4.16.32.69.82,1.14,1.42,1.19h.14c.55,0,1.05-.32,1.46-.87.78-1.05,1.01-2.88.46-4.16Z"/>
        <path class="cls-7" d="M201.48,90.4c-.32-.69-.82-1.14-1.42-1.19-.6-.05-1.14.23-1.6.87-.78,1.1-1.01,2.93-.46,4.16.32.69.82,1.14,1.42,1.19h.14c.55,0,1.05-.32,1.46-.87.82-1.1,1.01-2.93.46-4.16Z"/>
        <path class="cls-7" d="M215.53,89.85c-.32-.69-.82-1.14-1.42-1.19-.59-.05-1.14.23-1.6.87-.78,1.1-1.01,2.93-.46,4.16.32.69.82,1.14,1.42,1.19h.14c.55,0,1.05-.32,1.46-.87.82-1.05,1.01-2.88.46-4.16Z"/>
        <path class="cls-7" d="M205.79,100.56c.1.01.19.04.29.08s.18.1.27.18c.09.07.16.16.24.27.07.1.14.22.19.35.06.13.11.26.15.41.04.15.07.3.09.46.02.16.03.33.04.5,0,.17,0,.34-.02.51-.02.17-.04.34-.08.5s-.08.32-.13.48c-.05.15-.12.3-.18.43-.07.14-.14.26-.23.38-.08.11-.17.21-.26.3-.09.09-.19.16-.28.21-.1.06-.2.1-.3.12-.1.02-.2.03-.3.02s-.19-.04-.29-.08-.18-.1-.27-.18c-.08-.07-.16-.16-.23-.27-.07-.1-.14-.22-.2-.35-.06-.13-.11-.27-.15-.41-.04-.15-.07-.3-.09-.46s-.03-.33-.04-.5c0-.17,0-.34.02-.51.02-.17.04-.34.08-.5.04-.17.08-.32.13-.48.05-.15.12-.3.18-.43.07-.14.14-.26.23-.37.08-.11.17-.21.26-.3.09-.09.19-.16.28-.21.1-.06.2-.1.3-.12s.2-.03.3-.02Z"/>
        <path class="cls-8" d="M205.33,106.28h-.14c-.59-.05-1.1-.5-1.42-1.19-.55-1.24-.37-3.07.46-4.16.46-.6,1.01-.92,1.6-.87.6.05,1.1.5,1.42,1.19.55,1.24.37,3.07-.46,4.17-.41.59-.92.87-1.46.87ZM205.69,101.11c-.18,0-.41.14-.59.41-.59.78-.73,2.24-.32,3.11.14.32.37.55.55.55s.41-.14.64-.41c.6-.78.73-2.24.32-3.11-.18-.32-.37-.5-.6-.55Z"/>
        <path class="cls-8" d="M186.43,116.72l-25.99-7.41c-.5-.14-.55-.6-.14-1.05l19.13-18.44c.46-.41,1.24-.64,1.74-.5l25.99,7.46c.5.14.55.59.14,1.05l-19.13,18.44c-.46.41-1.19.64-1.74.46Z"/>
        <path class="cls-7" d="M186.79,117.45c-.18,0-.37,0-.5-.09l-26.04-7.46c-.46-.14-.78-.46-.87-.82-.09-.46.05-.92.46-1.33l19.13-18.44c.59-.6,1.65-.87,2.38-.69l25.99,7.46c.46.14.78.46.87.82.09.46-.05.92-.46,1.33l-19.13,18.44c-.46.5-1.19.78-1.83.78ZM160.8,108.71l25.81,7.41c.27.09.78-.05,1.1-.37l19.08-18.44-25.81-7.41c-.27-.09-.78.05-1.1.37l-19.08,18.44Z"/>
        <path class="cls-8" d="M214.43,125.55l-19.45,18.76c-.37.37-.82.18-.96-.41l-6.41-25.77c-.14-.59.05-1.37.41-1.74l19.45-18.76c.37-.37.82-.18.96.41l6.41,25.77c.14.55-.05,1.33-.41,1.74Z"/>
        <path class="cls-7" d="M194.57,145.18c-.09,0-.18,0-.27-.05-.46-.14-.78-.5-.92-1.05l-6.41-25.77c-.23-.82.05-1.88.59-2.38l19.45-18.76c.32-.32.78-.46,1.14-.32.46.14.78.5.92,1.05l6.41,25.77c.23.82-.05,1.88-.6,2.38l-19.45,18.76c-.27.23-.6.37-.87.37ZM207.8,98.18l-19.31,18.67c-.18.18-.37.73-.23,1.14l6.41,25.77,19.31-18.67c.18-.18.37-.73.23-1.14l-6.41-25.77Z"/>
        <path class="cls-8" d="M193.34,144.72l-25.99-7.46c-.5-.14-1.05-.73-1.19-1.37l-6.41-25.77c-.14-.59.14-.96.64-.82l25.99,7.46c.5.14,1.05.73,1.19,1.37l6.41,25.77c.18.6-.14.96-.64.82Z"/>
        <g class="cls-5">
          <path class="cls-7" d="M193.56,145.41c-.14,0-.27,0-.41-.05l-25.99-7.46c-.73-.23-1.46-1.01-1.65-1.83l-6.41-25.77c-.14-.55-.05-1.05.32-1.37.32-.27.73-.37,1.19-.23l25.99,7.46c.73.23,1.46,1.01,1.65,1.83l6.41,25.77c.14.55.05,1.05-.32,1.37-.23.18-.5.27-.78.27ZM160.34,109.99l6.41,25.76c.09.41.5.82.73.87l25.86,7.41-6.41-25.77c-.09-.41-.5-.82-.73-.87l-25.86-7.41Z"/>
        </g>
        <path class="cls-7" d="M175.72,105.05c-.14-.59-.64-1.01-1.37-1.24-1.33-.37-3.11.05-4.07,1.01-.55.55-.78,1.14-.64,1.69.14.6.64,1.01,1.37,1.24.32.09.64.14,1.01.14,1.1,0,2.33-.41,3.07-1.14.55-.5.78-1.1.64-1.69Z"/>
        <path class="cls-7" d="M186.84,102.3c-.14-.59-.64-1.01-1.37-1.24-1.33-.37-3.11.05-4.07,1.01-.55.55-.78,1.14-.64,1.69.14.6.64,1.01,1.37,1.24.32.09.64.14,1.01.14,1.1,0,2.33-.41,3.07-1.14.55-.55.78-1.14.64-1.69Z"/>
        <path class="cls-7" d="M196.74,99.81c.02.1.03.2.02.3,0,.1-.03.21-.08.31s-.1.21-.17.31-.16.2-.26.3-.21.19-.34.28c-.13.09-.26.17-.41.24-.14.07-.3.14-.46.2-.16.06-.32.11-.49.15-.17.04-.33.07-.5.09-.17.02-.33.03-.5.03-.16,0-.32,0-.47-.03s-.29-.05-.43-.09c-.13-.04-.26-.09-.37-.15-.11-.06-.21-.12-.3-.2-.09-.07-.16-.15-.21-.24-.06-.09-.1-.18-.12-.27s-.03-.2-.02-.3.03-.2.08-.31.1-.21.17-.31c.07-.1.16-.2.26-.3.1-.1.21-.19.34-.28.13-.09.26-.17.4-.24.14-.07.3-.14.46-.2s.32-.11.49-.15c.17-.04.33-.07.5-.09.17-.02.33-.03.5-.03.16,0,.32,0,.47.03.15.02.29.05.43.09.13.04.26.09.37.15.11.06.21.12.3.2.09.07.16.15.21.24.06.09.1.18.12.27Z"/>
        <path class="cls-7" d="M193.56,102.53c-.37,0-.69-.05-1.01-.14-.73-.23-1.24-.64-1.37-1.24-.14-.59.09-1.19.64-1.69.96-.96,2.75-1.37,4.07-1.01.73.23,1.24.64,1.37,1.24.14.6-.09,1.19-.64,1.69-.78.73-1.97,1.14-3.07,1.14Z"/>
        <path class="cls-7" d="M204.59,119c-.18-.73-.6-1.24-1.19-1.42-.55-.18-1.19.05-1.74.55-.96.96-1.51,2.7-1.14,4.03.18.73.59,1.24,1.19,1.37.14.05.27.05.37.05.46,0,.92-.23,1.37-.64.96-.82,1.46-2.61,1.14-3.93Z"/>
        <path class="cls-7" d="M207.16,108.29c-.18-.73-.59-1.24-1.19-1.42-.55-.18-1.19.05-1.74.55-.96.96-1.51,2.7-1.14,4.03.18.73.6,1.24,1.19,1.37.14.05.27.05.37.05.46,0,.92-.23,1.37-.64.96-.82,1.46-2.61,1.14-3.94Z"/>
        <path class="cls-7" d="M194.62,121.48c-.14,0-.27,0-.37-.05-.55-.18-1.01-.64-1.19-1.37-.32-1.33.18-3.07,1.14-4.03.55-.5,1.19-.73,1.74-.55.55.18,1.01.64,1.19,1.37.32,1.33-.18,3.07-1.14,4.03-.41.41-.92.6-1.37.6Z"/>
        <path class="cls-7" d="M200.61,130.67c-.18-.73-.59-1.24-1.19-1.37-.55-.18-1.19.05-1.74.55-.96.96-1.51,2.7-1.14,4.03.18.73.59,1.24,1.19,1.37.14.05.27.05.37.05.46,0,.92-.23,1.37-.64.96-.87,1.46-2.65,1.14-3.98Z"/>
        <path class="cls-7" d="M212.05,121.2c-.18-.73-.6-1.24-1.19-1.37-.55-.18-1.19.05-1.74.55-.96.96-1.51,2.7-1.14,4.03.18.73.59,1.24,1.19,1.42.14.05.27.05.37.05.46,0,.92-.23,1.37-.64.96-.92,1.51-2.7,1.14-4.03Z"/>
        <path class="cls-7" d="M171.69,119.32c-.32-1.33-1.6-2.65-2.93-3.02-.73-.23-1.37-.09-1.83.32-.41.41-.55,1.05-.37,1.78.32,1.33,1.6,2.65,2.93,3.02.23.05.46.09.69.09.46,0,.82-.14,1.14-.41.41-.41.55-1.05.37-1.78Z"/>
        <path class="cls-7" d="M173.47,126.6c-.32-1.33-1.6-2.65-2.93-3.02-.73-.23-1.37-.09-1.83.32-.41.41-.55,1.05-.37,1.78.32,1.33,1.6,2.65,2.93,3.02.23.05.46.09.69.09.46,0,.82-.14,1.14-.41.46-.41.55-1.05.37-1.79Z"/>
        <path class="cls-7" d="M175.26,133.65c-.32-1.33-1.6-2.65-2.93-3.02-.73-.23-1.37-.09-1.83.32-.41.41-.55,1.05-.37,1.79.32,1.33,1.6,2.65,2.93,3.02.23.05.46.09.69.09.46,0,.82-.14,1.14-.41.41-.41.55-1.05.37-1.78Z"/>
        <path class="cls-7" d="M182.81,122.44c-.32-1.33-1.6-2.65-2.93-3.02-.73-.23-1.37-.09-1.83.32-.41.41-.55,1.05-.37,1.78.32,1.33,1.6,2.65,2.93,3.02.23.05.46.09.69.09.46,0,.82-.14,1.14-.41.41-.41.55-1.05.37-1.79Z"/>
        <path class="cls-7" d="M184.64,129.71c-.32-1.33-1.6-2.65-2.93-3.02-.73-.23-1.37-.09-1.83.32-.41.41-.55,1.05-.37,1.79.32,1.33,1.6,2.65,2.93,3.02.23.05.46.09.69.09.46,0,.82-.14,1.14-.41.41-.46.55-1.05.37-1.78Z"/>
        <path class="cls-7" d="M186.38,136.71c-.32-1.33-1.6-2.65-2.93-3.02-.73-.23-1.37-.09-1.83.32-.41.41-.55,1.05-.37,1.78.32,1.33,1.6,2.65,2.93,3.02.23.05.46.09.69.09.46,0,.82-.14,1.14-.41.41-.41.55-1.05.37-1.78Z"/>
        <g class="cls-3">
          <g>
            <path d="M27.38,60.79c-.66.05-1.33.09-2,.11-.66.02-1.33.04-1.99.04-3.84-.05-7.61-.7-11.32-1.95-3.71-1.25-7-3.19-9.86-5.8-.2-.2-.46-.46-.77-.76-.31-.31-.43-.64-.38-1,.05-.15.12-.29.23-.42.1-.13.18-.24.23-.34.56-.61,1.1-1.22,1.61-1.8.51-.59,1.02-1.19,1.53-1.8.41-.46.81-.98,1.19-1.57.39-.59.91-.91,1.57-.96.46,0,.89.13,1.3.38,1.64.72,3.26,1.52,4.87,2.42,1.61.89,3.25,1.67,4.91,2.34,1.66.66,3.36,1.01,5.1,1.04,1.74.02,3.5-.45,5.29-1.42.51-.25,1-.57,1.46-.96.46-.39.82-.81,1.08-1.27.61-1.12.76-2.15.46-3.07-.31-.92-.88-1.75-1.73-2.49-.84-.74-1.78-1.38-2.8-1.92-1.02-.54-1.92-.96-2.69-1.27-1.69-.72-3.4-1.32-5.14-1.8-1.74-.49-3.48-1.01-5.21-1.57-1.69-.56-3.33-1.25-4.91-2.07-1.59-.82-2.91-1.95-3.99-3.38-1.43-1.84-2.26-3.97-2.49-6.4-.23-2.43-.09-4.74.42-6.95.41-2.04,1.24-3.85,2.49-5.4,1.25-1.56,2.78-2.83,4.57-3.8,3.32-1.94,7.36-2.91,12.12-2.91,1.99,0,3.98.18,5.94.54,1.97.36,3.9.87,5.79,1.53,1.02.36,2.07.75,3.14,1.19s1.99.95,2.76,1.54c.77.59,1.25,1.34,1.46,2.26.2.92-.05,2.04-.77,3.37-.2.51-.46,1-.77,1.46-.31.46-.61.89-.92,1.3-.26.51-.56.87-.92,1.07-.61.41-1.27.44-1.96.08-.69-.36-1.29-.69-1.8-1-1.84-1.18-3.8-2.07-5.87-2.69-2.07-.61-4.21-.79-6.41-.54-1.43.15-2.76.6-3.99,1.34-1.23.74-2.03,1.69-2.42,2.84-.38,1.15-.01,2.47,1.12,3.95,1.23,1.59,2.77,2.79,4.64,3.61,1.87.82,3.82,1.47,5.87,1.96,2.05.49,3.94,1.09,5.68,1.8,1.33.51,2.65,1.11,3.95,1.8,1.3.69,2.47,1.54,3.49,2.57,1.43,1.38,2.44,3.07,3.03,5.07.59,1.99.83,4.04.73,6.14-.1,2.1-.54,4.04-1.3,5.83-.87,2.05-2.13,3.76-3.8,5.14-1.66,1.38-3.52,2.44-5.56,3.19-2.04.74-4.14,1.21-6.29,1.42Z"/>
            <path d="M82.07,59.1c-.41.51-1.05.79-1.92.84-.82,0-1.61-.17-2.38-.5-.77-.33-1.52-.67-2.26-1-.74-.33-1.55-.5-2.41-.5-.56,0-1.13.04-1.69.11-.56.08-1.07.17-1.53.27l-.39.08c-1.48.25-2.93.59-4.33,1-1.41.41-2.72.82-3.95,1.23-.56.16-1.14.28-1.73.39-.59.1-1.19.15-1.8.15-3.73,0-6.88-1.48-9.44-4.45-2.91-3.32-4.06-7.41-3.45-12.27.26-1.94.93-3.68,2.03-5.21,1.1-1.54,2.49-2.71,4.18-3.53.87-.41,1.79-.7,2.76-.88.97-.18,1.97-.35,2.99-.5.26,0,.49-.01.69-.04.2-.02.41-.06.61-.11l10.05-1.38c1.33-.2,2.16-.6,2.49-1.19.33-.59.53-1.06.58-1.42.1-.87-.17-1.66-.81-2.38-.64-.72-1.39-1.2-2.26-1.46-1.59-.61-3.22-.92-4.91-.92h-.23c-1.59.05-3.09.28-4.53.69-1.43.41-2.81.9-4.14,1.46-.41.2-.89.3-1.46.3-1.13,0-2.24-.37-3.34-1.11-1.1-.74-1.88-1.62-2.34-2.64-.2-.41-.3-.76-.27-1.04.03-.28.07-.5.12-.65.31-.66.91-1.26,1.8-1.8.9-.54,1.84-1,2.84-1.38,1-.39,1.83-.68,2.49-.89,3.68-1.17,7.39-1.76,11.12-1.76h1.07c.36,0,.72.02,1.07.07,1.79.1,3.77.45,5.94,1.04,2.17.59,4.03,1.7,5.56,3.34,1.79,1.94,2.86,3.89,3.22,5.83.41,2.2.55,4.49.42,6.87-.13,2.38-.17,4.69-.11,6.94v6.95c0,2.33.02,4.61.07,6.86,0,.77.04,1.59.11,2.46.08.87-.11,1.59-.57,2.15ZM70.95,45.91c.41-.82.54-1.51.38-2.07-.15-.56-.31-.95-.46-1.15-.2-.31-.52-.6-.96-.88-.43-.28-1.04-.45-1.8-.5l-.61-.08c-.46-.05-.94-.07-1.42-.07h-1.57c-.87,0-1.92.09-3.14.27-1.23.18-2.4.65-3.53,1.41-.77.61-1.25,1.25-1.46,1.92-.2.56-.23,1.28-.08,2.15.36,1.59,1.05,2.81,2.07,3.68,1.02.87,2.25,1.3,3.68,1.3,1.79,0,3.55-.59,5.29-1.76,1.74-1.17,2.94-2.58,3.61-4.22Z"/>
            <path d="M131.86,26.27c-2.3.31-4.04,1.03-5.22,2.15-1.18,1.12-1.98,2.52-2.41,4.18-.43,1.66-.65,3.41-.65,5.26s.03,3.66.08,5.45c0,.36.04,1.16.11,2.41.08,1.25.14,2.68.19,4.3.05,1.61.04,3.2-.04,4.76-.08,1.56-.26,2.87-.54,3.92-.28,1.05-.7,1.62-1.26,1.72-.92.1-1.96.25-3.11.43-1.15.18-2.26.23-3.34.15s-1.97-.4-2.69-.96c-.72-.56-1.07-1.51-1.07-2.84-.05-3.78-.08-7.58-.08-11.39s-.15-7.58-.46-11.32c-.15-2.1-.73-3.95-1.73-5.56-1-1.61-2.7-2.52-5.1-2.72-.15-.05-.36-.08-.61-.08-2.15,0-3.87.51-5.18,1.54-1.3,1.02-2.28,2.35-2.91,3.99-.64,1.63-1.06,3.36-1.27,5.18-.2,1.82-.28,3.54-.23,5.17.05,2.25.09,4.52.11,6.79.02,2.27.04,4.54.04,6.79.05,1.79-.13,3.03-.54,3.72-.41.69-1.1,1.1-2.07,1.23-.97.13-2.3.27-3.99.42-1.94.15-3.25-.28-3.92-1.3-.66-1.02-1-2.43-1-4.22V22.43c0-.72-.04-1.58-.11-2.61-.08-1.02.14-1.79.65-2.3.2-.25.69-.38,1.46-.38h.54c.2,0,.41.02.61.07.72.1,1.41.22,2.07.35.66.13,1.33.24,1.99.34,1.07.2,2.16.4,3.26.58,1.1.18,2.21.34,3.34.5h.46c.51,0,.97-.08,1.38-.23.41-.15.79-.28,1.15-.39.1-.1.22-.16.34-.19.13-.03.22-.07.27-.12,1.43-.46,2.74-.82,3.91-1.07,1.18-.26,2.28-.39,3.3-.39,3.12,0,5.78,1.2,7.98,3.6,1.43,1.43,2.91,2.15,4.45,2.15.92,0,1.75-.2,2.49-.61.74-.41,1.42-.85,2.03-1.31.15-.1.29-.2.42-.3.13-.1.24-.18.34-.23,3.33-2.25,6.86-3.37,10.59-3.37,2.56,0,4.98.54,7.29,1.61,2.3,1.07,4.3,2.66,5.99,4.76,1.13,1.38,1.93,2.95,2.41,4.72.49,1.76.79,3.63.92,5.6.13,1.97.18,3.92.15,5.87-.02,1.94.04,3.76.19,5.45.2,2.25.41,4.58.61,6.98.2,2.4-.13,4.7-1,6.9-.36.87-.9,1.43-1.61,1.69-.72.25-1.51.34-2.38.27-.87-.08-1.76-.09-2.68-.04-1.28,0-2.21-.06-2.8-.19-.59-.13-.97-.49-1.15-1.07-.18-.59-.32-1.55-.42-2.88-.2-3.79-.28-7.59-.23-11.43.05-3.83-.13-7.59-.54-11.28-.26-2.3-1.04-4.1-2.34-5.41s-2.98-1.96-5.03-1.96c-.2,0-.43.01-.69.04-.25.02-.51.06-.77.11Z"/>
            <path d="M191.76,56.11c-3.02,2.56-6.6,4.05-10.74,4.49-4.14.43-8.26-.35-12.35-2.34-.2-.15-.49-.23-.84-.23s-.72.1-1.07.31c-.61.36-.92.92-.92,1.69v4.6c0,.51.05,1.35.15,2.5.1,1.15.19,2.39.27,3.72.08,1.33.06,2.52-.04,3.57-.1,1.05-.38,1.73-.84,2.03-.2.1-.44.18-.69.23-.25.05-.51.1-.76.16-1.33.15-2.7.32-4.11.5-1.41.18-2.64.05-3.72-.38s-1.74-1.5-1.99-3.19c-.36-3.02-.44-6.02-.23-9.02.2-2.99.31-5.97.31-8.93,0-5.78.01-11.65.04-17.61.03-5.96-.01-11.88-.11-17.76,0-1.07.06-1.84.19-2.3.13-.46.27-.77.42-.92.46-.46,1.22-.6,2.26-.42,1.05.18,2.12.43,3.22.77,1.1.33,1.9.55,2.42.65,2.1.36,4.06.38,5.9.08,1.84-.31,3.7-.69,5.56-1.15,1.87-.46,3.82-.69,5.87-.69,2.91,0,5.55.6,7.9,1.8,2.35,1.2,4.35,2.84,5.98,4.91,1.64,2.07,2.93,4.38,3.87,6.94.95,2.56,1.47,5.21,1.57,7.94.1,2.74-.23,5.38-1,7.94-.67,2.15-1.55,4.07-2.65,5.76-1.1,1.69-2.39,3.14-3.87,4.37ZM176.42,51.74h.38c2.1-.1,3.97-.74,5.6-1.92,1.64-1.17,2.94-2.73,3.91-4.68.97-1.94,1.43-4.09,1.38-6.44,0-2.45-.5-4.65-1.5-6.6-1-1.94-2.32-3.49-3.99-4.64-1.66-1.15-3.54-1.73-5.64-1.73h-.31c-2.04.05-3.89.68-5.52,1.88-1.64,1.2-2.92,2.81-3.84,4.83-.92,2.02-1.35,4.28-1.3,6.79.05,2.35.55,4.48,1.5,6.37.95,1.89,2.24,3.39,3.87,4.49,1.64,1.1,3.45,1.65,5.45,1.65Z"/>
            <path d="M210.86,59.95c-.36.46-.87.72-1.53.77-.66.05-1.35.13-2.07.23-.67.05-1.45.1-2.35.15-.89.05-1.74-.04-2.53-.27-.79-.23-1.39-.7-1.8-1.42-.61-1.13-.97-2.37-1.08-3.72-.1-1.35-.07-2.74.08-4.14.16-1.41.23-2.72.23-3.95.05-2.4.09-4.79.11-7.17.03-2.38.07-4.77.12-7.17.05-4.76.06-9.52.04-14.3-.02-4.78-.09-9.55-.19-14.31,0-1.33.28-2.29.84-2.88.56-.59,1.3-.93,2.23-1.03.92-.1,1.92-.08,2.99.07,1.07.15,2.1.28,3.07.39,1.07.1,1.78.68,2.11,1.73.33,1.05.49,2.17.46,3.37-.02,1.2-.06,2.16-.11,2.88-.1,2.35-.17,4.73-.19,7.13-.02,2.4-.04,4.81-.04,7.21v34.98c0,.61-.13,1.1-.39,1.46Z"/>
            <path d="M254.81,41.54c-.61.51-1.52.86-2.72,1.04-1.2.18-2.48.27-3.84.27s-2.62-.02-3.8-.07c-1.18-.05-2.07-.08-2.69-.08-2.66.05-5.29.09-7.9.11s-5.24.04-7.9.04c-.82,0-1.34.26-1.57.77-.23.51-.26,1.09-.08,1.73.18.64.42,1.19.73,1.65,1.07,1.38,2.42,2.49,4.03,3.34,1.61.84,3.29,1.37,5.03,1.57,1.94.2,3.57-.06,4.87-.8,1.31-.74,2.78-1.52,4.41-2.34.77-.41,1.29-.67,1.57-.77.28-.1.75.13,1.42.69.72.56,1.39,1.33,2.03,2.3.64.97,1.26,1.81,1.88,2.53.67.87.64,1.69-.07,2.46-.72.77-1.82,1.47-3.3,2.11-1.48.64-3.1,1.19-4.83,1.65-1.74.46-3.31.82-4.72,1.07-1.41.25-2.36.38-2.87.38-3.43,0-6.59-.68-9.47-2.03-2.89-1.35-5.36-3.2-7.4-5.52-2.04-2.33-3.58-4.95-4.6-7.86-1.02-2.92-1.42-5.97-1.19-9.17.23-3.2,1.22-6.31,2.96-9.32,1.33-2.35,3.1-4.35,5.33-5.99,2.22-1.64,4.68-2.85,7.36-3.64,2.69-.79,5.44-1.15,8.25-1.07,2.81.08,5.48.64,8.02,1.69,2.53,1.05,4.75,2.62,6.64,4.72.87.97,1.7,2.19,2.49,3.64.79,1.46,1.47,3.03,2.03,4.72.56,1.69.91,3.34,1.04,4.95.13,1.61-.04,3.08-.5,4.41-.1.31-.31.59-.61.84ZM243.23,33.56c.15-.36.2-.74.15-1.15-.05-.61-.33-1.2-.84-1.76-1.38-1.94-3.18-3.38-5.37-4.3-2.2-.92-4.45-.87-6.75.16-1.02.46-1.98,1.05-2.88,1.76-.89.72-1.73,1.48-2.49,2.3-.2.2-.41.44-.61.69-.2.25-.36.54-.46.84-.2.61-.1,1.17.31,1.69.41.51.92.77,1.53.77h15.65c.87,0,1.46-.33,1.76-1Z"/>
          </g>
        </g>
        <g class="cls-4">
          <g>
            <path d="M42.19,109.32c-1.23,0-2.14.54-2.73,1.61-.59,1.07-.96,2.38-1.11,3.92-.15,1.53-.2,3.02-.16,4.45.05,1.43.1,2.5.16,3.22.1.72.17,1.48.19,2.3.02.82-.37,1.41-1.19,1.76-.56.2-1.22.24-1.96.11-.74-.13-1.42-.17-2.03-.11-.36,0-1,.04-1.92.11-.92.08-1.82.08-2.69,0-.87-.08-1.41-.32-1.61-.73-.05-.15-.08-.43-.08-.84v-33.41c0-5.45-.02-10.88-.07-16.31,0-1.02.06-2.07.19-3.14.13-1.07.81-1.79,2.03-2.15,1.02-.31,2.1-.34,3.22-.11,1.13.23,2.23.37,3.3.42,3.83.2,7.67.37,11.5.5,3.84.13,7.7.42,11.59.88.87.1,1.73.25,2.57.46s1.67.49,2.49.84c2.92,1.23,4.97,3.17,6.17,5.83,1.2,2.66,1.91,5.47,2.11,8.44.1,2.05-.02,4.08-.38,6.1-.36,2.02-1.02,3.93-2,5.72-.51.87-1.07,1.71-1.69,2.53-.61.82-1.3,1.58-2.07,2.3-.31.31-.77.66-1.38,1.07-.61.41-1.14.84-1.57,1.3-.43.46-.63.97-.58,1.53.05.2.13.41.23.61.1.2.21.43.31.69,1.23,1.84,2.56,3.62,3.99,5.33,1.43,1.71,2.79,3.46,4.07,5.25.56.82,1.16,1.64,1.8,2.46.64.82,1.14,1.69,1.5,2.6.1.26.2.56.3.92.1.36-.02.64-.38.84-.15.05-.38.08-.69.08-1.18,0-2.36.01-3.53.04-1.18.02-2.35.04-3.53.04s-2.36-.02-3.57-.07c-1.2-.05-2.27-.51-3.19-1.38-.66-.66-1.23-1.42-1.69-2.26-.46-.84-.97-1.65-1.53-2.42-.97-1.48-1.98-2.95-3.03-4.41-1.05-1.46-2.16-2.88-3.34-4.26-1.43-1.53-4.06-2.43-7.9-2.69h-.15ZM39.04,95.35c.26,1.13.91,1.96,1.96,2.5,1.05.54,2.28.87,3.68,1,1.41.13,2.79.13,4.14,0,1.35-.13,2.44-.3,3.26-.5,2.25-.56,4.2-1.62,5.87-3.18,1.66-1.56,2.49-3.57,2.49-6.02,0-1.84-.45-3.38-1.34-4.6-.89-1.23-2.06-2.2-3.49-2.91-1.43-.72-2.98-1.19-4.64-1.42-1.66-.23-3.26-.27-4.79-.11-.67.05-1.51.15-2.53.31-1.02.15-1.96.42-2.8.8-.84.38-1.37,1.01-1.57,1.88-.97,4.14-1.05,8.24-.23,12.27Z"/>
            <path d="M75.02,104.64c-.05-2.86.51-5.72,1.69-8.55,1.18-2.84,2.81-5.33,4.91-7.48,1.99-2.05,4.27-3.61,6.83-4.68,2.56-1.07,5.19-1.61,7.9-1.61h1.69c4.45,0,8.37.92,11.77,2.76,3.4,1.84,6.08,4.4,8.02,7.67,1.94,3.27,2.91,7.06,2.91,11.35,0,6.7-2.1,12.15-6.29,16.34-2.05,2.05-4.49,3.62-7.33,4.72-2.84,1.1-5.92,1.65-9.24,1.65s-6.12-.58-8.86-1.73c-2.74-1.15-5.14-2.74-7.21-4.76-2.07-2.02-3.71-4.37-4.91-7.06-1.2-2.69-1.83-5.56-1.88-8.63ZM97.65,91.44c-1.79,0-3.53.58-5.22,1.73-1.69,1.15-3.08,2.64-4.18,4.45-1.1,1.82-1.67,3.72-1.72,5.71-.05,2.2.3,4.32,1.07,6.37.77,2.04,1.94,3.76,3.53,5.14,1.58,1.38,3.55,2.2,5.91,2.46,2.61.26,4.81-.15,6.6-1.23,1.79-1.07,3.17-2.54,4.14-4.41.97-1.87,1.51-3.91,1.61-6.14.1-2.22-.23-4.36-1-6.4-.77-2.05-1.99-3.77-3.68-5.18-1.69-1.41-3.84-2.24-6.44-2.5h-.61Z"/>
            <path d="M132.32,125.81c-.36.46-.87.72-1.53.77-.66.05-1.35.13-2.07.23-.67.05-1.45.1-2.35.15-.89.05-1.74-.04-2.53-.27-.79-.23-1.39-.7-1.8-1.42-.61-1.13-.97-2.37-1.08-3.72-.1-1.35-.07-2.74.08-4.14.16-1.41.23-2.72.23-3.95.05-2.4.09-4.79.11-7.17.03-2.38.07-4.77.12-7.17.05-4.76.06-9.52.04-14.3-.02-4.78-.09-9.55-.19-14.31,0-1.33.28-2.29.84-2.88.56-.59,1.3-.93,2.23-1.03.92-.1,1.92-.08,2.99.07,1.07.15,2.1.28,3.07.39,1.07.1,1.78.68,2.11,1.73.33,1.05.49,2.17.46,3.37-.02,1.2-.06,2.16-.11,2.88-.1,2.35-.17,4.73-.19,7.13-.02,2.4-.04,4.81-.04,7.21v34.98c0,.61-.13,1.1-.39,1.46Z"/>
            <path d="M144.67,125.81c-.36.46-.87.72-1.53.77-.66.05-1.35.13-2.07.23-.67.05-1.45.1-2.35.15-.89.05-1.74-.04-2.53-.27-.79-.23-1.39-.7-1.8-1.42-.61-1.13-.97-2.37-1.08-3.72-.1-1.35-.07-2.74.08-4.14.16-1.41.23-2.72.23-3.95.05-2.4.09-4.79.11-7.17.03-2.38.07-4.77.12-7.17.05-4.76.06-9.52.04-14.3-.02-4.78-.09-9.55-.19-14.31,0-1.33.28-2.29.84-2.88.56-.59,1.3-.93,2.23-1.03.92-.1,1.92-.08,2.99.07,1.07.15,2.1.28,3.07.39,1.07.1,1.78.68,2.11,1.73.33,1.05.49,2.17.46,3.37-.02,1.2-.06,2.16-.11,2.88-.1,2.35-.17,4.73-.19,7.13-.02,2.4-.04,4.81-.04,7.21v34.98c0,.61-.13,1.1-.39,1.46Z"/>
          </g>
        </g>
      </g>
    </g>
  </g>
</svg>