<?xml version="1.0" encoding="UTF-8"?>
<svg id="Layer_2" xmlns="http://www.w3.org/2000/svg" xmlns:xlink="http://www.w3.org/1999/xlink" viewBox="0 0 1384 278.67">
  <defs>
    <style>
      .cls-1 {
        fill: none;
      }

      .cls-2 {
        clip-path: url(#clippath-1);
      }

      .cls-3 {
        fill: #fff;
      }

      .cls-4 {
        clip-path: url(#clippath);
      }
    </style>
    <clipPath id="clippath">
      <rect class="cls-1" width="913.33" height="278.67"/>
    </clipPath>
    <clipPath id="clippath-1">
      <rect class="cls-1" x="953.33" width="430.67" height="278.67"/>
    </clipPath>
  </defs>
  <g id="Layer_1-2" data-name="Layer_1">
    <g>
      <g class="cls-4">
        <g>
          <path class="cls-3" d="M97.33,216.71c-2.36.18-4.72.32-7.08.42-2.36.08-4.72.13-7.08.13-13.63-.18-27.02-2.49-40.19-6.94-13.17-4.46-24.83-11.32-35-20.58-.72-.72-1.64-1.63-2.73-2.71-1.08-1.09-1.54-2.28-1.35-3.54.18-.55.45-1.05.81-1.5.36-.46.64-.86.83-1.23,1.98-2.18,3.89-4.31,5.71-6.4,1.82-2.09,3.64-4.23,5.46-6.42,1.44-1.63,2.84-3.48,4.21-5.56,1.36-2.09,3.22-3.23,5.58-3.42,1.64,0,3.19.45,4.65,1.35,5.8,2.54,11.57,5.41,17.29,8.58,5.72,3.18,11.53,5.95,17.44,8.31,5.9,2.36,11.94,3.59,18.1,3.69,6.18.08,12.44-1.59,18.79-5.04,1.82-.92,3.54-2.05,5.17-3.42,1.64-1.36,2.92-2.86,3.83-4.5,2.18-3.98,2.72-7.61,1.63-10.88-1.08-3.28-3.13-6.23-6.13-8.85-3-2.64-6.32-4.91-9.96-6.81-3.63-1.92-6.8-3.42-9.52-4.5-5.99-2.54-12.07-4.67-18.25-6.4-6.17-1.73-12.34-3.59-18.52-5.58-5.99-2-11.8-4.45-17.44-7.35-5.63-2.92-10.35-6.92-14.17-12-5.08-6.54-8.04-14.13-8.85-22.75-.81-8.63-.31-16.84,1.5-24.65,1.46-7.26,4.41-13.66,8.85-19.19,4.46-5.54,9.86-10.04,16.21-13.5,11.8-6.9,26.15-10.35,43.04-10.35,7.08,0,14.11.64,21.1,1.92,7,1.27,13.86,3.08,20.58,5.44,3.63,1.28,7.34,2.69,11.15,4.23,3.82,1.54,7.09,3.36,9.81,5.46,2.72,2.08,4.44,4.77,5.17,8.04.73,3.27-.17,7.25-2.71,11.96-.72,1.82-1.64,3.55-2.73,5.19-1.08,1.64-2.18,3.18-3.27,4.63-.91,1.82-1.99,3.09-3.27,3.81-2.17,1.46-4.48,1.56-6.94.29-2.45-1.28-4.58-2.46-6.4-3.56-6.54-4.17-13.49-7.34-20.85-9.52-7.35-2.18-14.93-2.82-22.73-1.92-5.08.54-9.81,2.14-14.17,4.77-4.36,2.64-7.22,6-8.58,10.08-1.36,4.08-.04,8.76,3.96,14.02,4.34,5.63,9.83,9.9,16.46,12.81,6.64,2.91,13.59,5.22,20.85,6.94,7.26,1.72,13.98,3.85,20.15,6.4,4.72,1.82,9.4,3.96,14.02,6.42,4.64,2.45,8.78,5.49,12.42,9.13,5.08,4.91,8.67,10.9,10.75,17.98,2.09,7.07,2.96,14.33,2.58,21.79-.36,7.45-1.91,14.34-4.63,20.69-3.08,7.27-7.58,13.35-13.48,18.25-5.91,4.91-12.49,8.68-19.75,11.31-7.27,2.63-14.71,4.31-22.33,5.04Z"/>
          <path class="cls-3" d="M291.52,210.71c-1.46,1.82-3.73,2.82-6.81,3-2.91,0-5.72-.59-8.46-1.77-2.72-1.18-5.41-2.36-8.04-3.54-2.63-1.18-5.48-1.77-8.56-1.77-2,0-4,.14-6,.42-2,.27-3.81.58-5.44.94l-1.38.27c-5.27.92-10.4,2.1-15.4,3.56-4.99,1.45-9.66,2.9-14.02,4.35-2,.54-4.04.99-6.13,1.35s-4.22.54-6.4.54c-13.27,0-24.43-5.26-33.5-15.79-10.36-11.8-14.45-26.33-12.27-43.58.92-6.9,3.32-13.07,7.23-18.52,3.9-5.46,8.84-9.64,14.83-12.54,3.09-1.44,6.36-2.48,9.81-3.13,3.44-.64,6.98-1.23,10.63-1.77.9,0,1.71-.04,2.44-.13.73-.09,1.46-.23,2.19-.42l35.69-4.92c4.72-.72,7.67-2.13,8.85-4.21,1.18-2.09,1.86-3.78,2.04-5.04.36-3.08-.6-5.9-2.88-8.44-2.27-2.55-4.94-4.28-8.02-5.19-5.63-2.18-11.44-3.27-17.44-3.27h-.81c-5.63.18-10.99,1-16.08,2.46-5.08,1.45-9.98,3.17-14.69,5.17-1.46.74-3.19,1.1-5.19,1.1-4,0-7.95-1.32-11.85-3.96-3.91-2.64-6.67-5.77-8.29-9.4-.74-1.46-1.06-2.68-.98-3.67.09-1,.23-1.78.42-2.33,1.09-2.36,3.23-4.49,6.4-6.4,3.18-1.9,6.54-3.53,10.08-4.9,3.54-1.36,6.49-2.41,8.85-3.15,13.08-4.17,26.25-6.25,39.5-6.25h3.81c1.28,0,2.55.09,3.81.27,6.36.36,13.4,1.59,21.1,3.69,7.72,2.08,14.31,6.03,19.77,11.83,6.34,6.91,10.16,13.81,11.44,20.71,1.44,7.81,1.94,15.93,1.48,24.38-.45,8.45-.58,16.66-.4,24.65v24.67c0,8.25.09,16.38.27,24.38,0,2.72.13,5.63.4,8.71.28,3.08-.4,5.63-2.02,7.63ZM252.02,163.86c1.44-2.9,1.9-5.35,1.35-7.35s-1.08-3.36-1.63-4.08c-.74-1.08-1.88-2.13-3.42-3.13s-3.68-1.59-6.4-1.77l-2.19-.27c-1.63-.18-3.31-.27-5.04-.27h-5.58c-3.08,0-6.81.32-11.17.96-4.35.63-8.52,2.3-12.52,5.02-2.72,2.18-4.45,4.45-5.17,6.81-.74,2-.83,4.54-.29,7.63,1.28,5.64,3.73,10,7.35,13.08,3.64,3.08,8,4.63,13.08,4.63,6.36,0,12.63-2.08,18.79-6.25,6.18-4.18,10.45-9.18,12.81-15Z"/>
          <path class="cls-3" d="M468.28,94.13c-8.17,1.08-14.34,3.63-18.52,7.63-4.18,4-7.04,8.95-8.58,14.85-1.54,5.91-2.31,12.13-2.31,18.67s.09,12.97.27,19.33c0,1.27.13,4.13.4,8.58.28,4.45.51,9.53.69,15.25.18,5.72.13,11.35-.15,16.9-.27,5.53-.9,10.16-1.9,13.88-1,3.72-2.5,5.77-4.5,6.13-3.27.38-6.94.89-11.02,1.52-4.08.63-8.04.8-11.85.54-3.81-.28-6.99-1.42-9.54-3.42-2.54-2-3.81-5.36-3.81-10.08-.18-13.43-.27-26.91-.27-40.44s-.54-26.92-1.63-40.19c-.54-7.44-2.58-14.03-6.13-19.75-3.54-5.72-9.58-8.94-18.13-9.67-.54-.18-1.27-.27-2.17-.27-7.64,0-13.77,1.82-18.4,5.46-4.63,3.63-8.08,8.35-10.35,14.17-2.27,5.81-3.77,11.93-4.5,18.38-.72,6.45-.99,12.57-.81,18.38.18,8,.31,16.04.4,24.13.09,8.07.15,16.1.15,24.1.18,6.35-.46,10.75-1.92,13.21-1.45,2.45-3.9,3.9-7.35,4.35-3.45.46-8.16.96-14.15,1.5-6.91.54-11.54-1-13.9-4.63-2.36-3.64-3.54-8.63-3.54-14.98v-117.15c0-2.54-.14-5.63-.42-9.25-.26-3.64.51-6.36,2.33-8.19.72-.9,2.44-1.35,5.17-1.35h1.9c.73,0,1.46.09,2.19.27,2.54.36,4.99.77,7.35,1.23,2.36.46,4.72.87,7.08,1.23,3.82.72,7.68,1.41,11.58,2.04,3.9.64,7.85,1.23,11.85,1.77h1.63c1.82,0,3.45-.27,4.9-.81,1.46-.55,2.82-1.01,4.1-1.38.36-.36.76-.58,1.21-.67.46-.09.78-.23.96-.42,5.08-1.64,9.71-2.91,13.9-3.81,4.18-.9,8.08-1.35,11.71-1.35,11.08,0,20.53,4.27,28.33,12.79,5.08,5.08,10.34,7.63,15.79,7.63,3.28,0,6.23-.72,8.85-2.17,2.64-1.46,5.05-3.01,7.23-4.65.54-.36,1.03-.72,1.48-1.08.46-.36.88-.63,1.25-.81,11.79-7.98,24.32-11.98,37.58-11.98,9.08,0,17.71,1.91,25.88,5.73,8.17,3.81,15.25,9.43,21.25,16.88,4,4.91,6.86,10.49,8.58,16.75,1.72,6.27,2.8,12.9,3.25,19.9.46,6.99.64,13.93.54,20.83-.08,6.89.15,13.33.69,19.33.73,7.99,1.46,16.25,2.19,24.79.72,8.53-.46,16.7-3.54,24.5-1.27,3.1-3.18,5.1-5.73,6-2.54.91-5.35,1.22-8.44.96-3.08-.28-6.26-.32-9.52-.15-4.54,0-7.86-.22-9.96-.67-2.08-.46-3.45-1.73-4.08-3.81-.64-2.09-1.14-5.51-1.5-10.23-.72-13.43-.99-26.96-.81-40.58.18-13.63-.45-26.97-1.9-40.04-.92-8.17-3.7-14.56-8.33-19.19-4.63-4.64-10.57-6.96-17.83-6.96-.72,0-1.54.05-2.46.15-.91.08-1.81.22-2.71.4Z"/>
          <path class="cls-3" d="M680.97,200.09c-10.71,9.08-23.42,14.4-38.13,15.94s-29.33-1.23-43.85-8.31c-.74-.54-1.74-.81-3-.81s-2.55.36-3.81,1.08c-2.18,1.28-3.27,3.28-3.27,6v16.35c0,1.8.18,4.75.54,8.83.36,4.09.67,8.51.94,13.23.28,4.72.23,8.94-.13,12.67-.36,3.72-1.36,6.13-3,7.21-.72.36-1.54.63-2.46.81-.91.18-1.81.36-2.71.54-4.72.55-9.58,1.15-14.58,1.77-4.99.64-9.39.19-13.21-1.35-3.81-1.54-6.17-5.31-7.08-11.31-1.27-10.71-1.53-21.38-.81-32,.72-10.63,1.08-21.2,1.08-31.73,0-20.53.05-41.36.15-62.52.09-21.15-.04-42.17-.42-63.06,0-3.8.23-6.53.69-8.17.46-1.64.96-2.73,1.5-3.27,1.64-1.63,4.32-2.11,8.04-1.48,3.72.63,7.53,1.53,11.44,2.71,3.9,1.18,6.76,1.95,8.58,2.31,7.44,1.28,14.43,1.38,20.96.29,6.54-1.09,13.13-2.46,19.75-4.1,6.64-1.64,13.59-2.46,20.85-2.46,10.34,0,19.69,2.14,28.04,6.42,8.36,4.27,15.44,10.08,21.25,17.44,5.82,7.35,10.4,15.56,13.75,24.65,3.36,9.08,5.22,18.49,5.58,28.21.38,9.71-.8,19.1-3.52,28.17-2.36,7.63-5.5,14.44-9.42,20.44-3.91,5.99-8.49,11.16-13.75,15.52ZM626.49,184.57h1.38c7.44-.36,14.07-2.63,19.88-6.81,5.8-4.18,10.43-9.71,13.88-16.6,3.46-6.9,5.09-14.53,4.92-22.9,0-8.71-1.77-16.51-5.31-23.42-3.54-6.9-8.27-12.4-14.17-16.48-5.91-4.08-12.58-6.13-20.02-6.13h-1.08c-7.27.18-13.81,2.41-19.63,6.67-5.81,4.27-10.34,9.99-13.6,17.17-3.27,7.17-4.81,15.2-4.63,24.1.18,8.35,1.94,15.89,5.29,22.6,3.36,6.72,7.94,12.04,13.75,15.94,5.82,3.91,12.27,5.85,19.35,5.85Z"/>
          <path class="cls-3" d="M748.77,213.71c-1.27,1.64-3.08,2.55-5.44,2.73-2.36.18-4.81.45-7.35.81-2.36.18-5.14.36-8.31.54-3.18.18-6.18-.14-9-.96-2.81-.82-4.94-2.5-6.4-5.04-2.18-3.98-3.45-8.38-3.81-13.19-.36-4.82-.27-9.72.27-14.71.54-5,.81-9.68.81-14.04.18-8.54.32-17.03.42-25.48.09-8.44.23-16.93.42-25.46.18-16.89.22-33.82.13-50.79-.08-16.98-.31-33.92-.69-50.81,0-4.72,1-8.13,3-10.21,2-2.09,4.63-3.32,7.9-3.69,3.28-.36,6.82-.27,10.63.27,3.82.54,7.45,1,10.9,1.38,3.82.36,6.32,2.41,7.5,6.13,1.18,3.72,1.72,7.72,1.63,11.98-.08,4.27-.22,7.67-.4,10.21-.36,8.36-.59,16.81-.69,25.35-.08,8.53-.13,17.06-.13,25.58v124.23c0,2.17-.46,3.89-1.38,5.17Z"/>
          <path class="cls-3" d="M904.84,148.34c-2.18,1.82-5.41,3.05-9.67,3.69-4.27.63-8.81.94-13.63.94s-9.3-.09-13.48-.27c-4.18-.18-7.36-.27-9.54-.27-9.45.18-18.8.32-28.06.42-9.25.08-18.6.13-28.04.13-2.91,0-4.77.91-5.58,2.73-.82,1.82-.91,3.87-.27,6.15.64,2.27,1.5,4.21,2.58,5.83,3.82,4.91,8.58,8.85,14.29,11.85,5.72,3,11.67,4.86,17.85,5.58,6.9.72,12.67-.23,17.29-2.85,4.63-2.64,9.84-5.41,15.67-8.31,2.72-1.46,4.58-2.36,5.58-2.73,1-.36,2.68.46,5.04,2.46,2.54,2,4.94,4.73,7.21,8.19,2.28,3.45,4.51,6.44,6.69,8.98,2.36,3.08,2.27,5.99-.27,8.71-2.54,2.72-6.45,5.22-11.73,7.5-5.27,2.27-10.99,4.22-17.17,5.85-6.17,1.63-11.75,2.9-16.75,3.81-4.99.9-8.39,1.35-10.21,1.35-12.17,0-23.39-2.4-33.65-7.21-10.25-4.82-19.01-11.36-26.27-19.63-7.27-8.26-12.72-17.57-16.35-27.92-3.63-10.34-5.03-21.19-4.23-32.54.82-11.36,4.32-22.4,10.5-33.1,4.72-8.34,11.03-15.42,18.92-21.23,7.9-5.82,16.61-10.14,26.15-12.96,9.54-2.82,19.3-4.09,29.29-3.81,10,.28,19.49,2.28,28.48,6,8.98,3.72,16.84,9.31,23.56,16.75,3.08,3.45,6.03,7.76,8.83,12.94,2.82,5.18,5.23,10.77,7.23,16.75,2,5.99,3.22,11.84,3.67,17.56.46,5.72-.13,10.95-1.75,15.67-.36,1.1-1.09,2.1-2.19,3ZM863.72,120.01c.54-1.26.72-2.63.54-4.08-.18-2.18-1.18-4.27-3-6.27-4.91-6.9-11.26-11.98-19.06-15.25-7.81-3.26-15.8-3.08-23.98.54-3.63,1.64-7.03,3.73-10.21,6.27-3.18,2.54-6.14,5.27-8.85,8.17-.72.74-1.45,1.56-2.19,2.46-.72.91-1.27,1.91-1.63,3-.72,2.18-.36,4.18,1.08,6,1.46,1.81,3.28,2.71,5.46,2.71h55.56c3.08,0,5.17-1.18,6.27-3.54Z"/>
        </g>
      </g>
      <g class="cls-2">
        <g>
          <path class="cls-3" d="M1011.22,155.15c-4.36,0-7.59,1.91-9.69,5.73-2.08,3.81-3.4,8.43-3.94,13.88-.54,5.45-.72,10.72-.54,15.81.18,5.08.36,8.9.54,11.44.36,2.54.58,5.27.67,8.17.09,2.91-1.31,4.99-4.21,6.27-2,.72-4.32.86-6.96.42-2.63-.46-5.03-.59-7.21-.42-1.27,0-3.54.14-6.81.42-3.27.27-6.44.27-9.52,0-3.08-.28-4.99-1.15-5.73-2.6-.18-.54-.27-1.54-.27-3v-118.6c0-19.34-.09-38.65-.27-57.9,0-3.64.22-7.36.67-11.17.46-3.82,2.86-6.36,7.23-7.63,3.64-1.09,7.45-1.23,11.44-.42,4,.82,7.91,1.32,11.73,1.5,13.61.72,27.22,1.31,40.83,1.77,13.63.45,27.34,1.49,41.15,3.13,3.08.36,6.13.91,9.13,1.65,3,.72,5.95,1.72,8.85,2.98,10.34,4.36,17.65,11.27,21.92,20.71,4.28,9.45,6.78,19.43,7.5,29.96.36,7.27-.1,14.49-1.38,21.67-1.27,7.17-3.62,13.93-7.06,20.29-1.82,3.08-3.82,6.08-6,9-2.18,2.91-4.64,5.63-7.35,8.17-1.08,1.08-2.72,2.35-4.9,3.81-2.18,1.45-4.04,2.99-5.58,4.63-1.54,1.64-2.22,3.45-2.04,5.44.18.74.45,1.47.81,2.19.36.72.72,1.54,1.08,2.46,4.36,6.53,9.08,12.83,14.17,18.92s9.9,12.31,14.44,18.67c2,2.91,4.13,5.81,6.4,8.73,2.28,2.91,4.05,5.99,5.31,9.25.38.91.74,1.99,1.1,3.27.36,1.27-.1,2.27-1.38,3-.54.18-1.35.27-2.44.27-4.18,0-8.36.05-12.54.15-4.18.08-8.35.13-12.52.13s-8.41-.09-12.67-.27c-4.27-.18-8.04-1.81-11.31-4.9-2.36-2.36-4.36-5.04-6-8.04-1.63-3-3.44-5.86-5.44-8.58-3.45-5.26-7.03-10.48-10.75-15.67-3.72-5.18-7.68-10.22-11.85-15.13-5.08-5.44-14.44-8.61-28.06-9.52h-.54ZM1000.06,105.57c.9,4,3.21,6.95,6.94,8.85,3.72,1.91,8.07,3.08,13.06,3.54,5,.46,9.9.46,14.71,0,4.82-.46,8.69-1.05,11.6-1.77,7.98-2,14.93-5.76,20.83-11.29,5.9-5.54,8.85-12.67,8.85-21.4,0-6.54-1.59-11.98-4.77-16.33-3.18-4.36-7.31-7.81-12.4-10.35s-10.58-4.22-16.48-5.04c-5.91-.82-11.58-.96-17.02-.42-2.36.18-5.36.55-9,1.1-3.63.54-6.94,1.49-9.94,2.85-3,1.36-4.86,3.58-5.58,6.67-3.45,14.71-3.72,29.24-.81,43.58Z"/>
          <path class="cls-3" d="M1127.78,138.53c-.18-10.17,1.81-20.28,5.98-30.35,4.18-10.08,10-18.94,17.46-26.56,7.07-7.26,15.15-12.8,24.23-16.63,9.08-3.82,18.44-5.73,28.06-5.73h6c15.79,0,29.72,3.27,41.79,9.81,12.08,6.54,21.57,15.63,28.48,27.25,6.9,11.61,10.35,25.05,10.35,40.31,0,23.79-7.45,43.14-22.33,58.02-7.27,7.27-15.94,12.85-26.02,16.75-10.08,3.91-21.03,5.85-32.83,5.85s-21.74-2.04-31.46-6.13c-9.71-4.08-18.24-9.71-25.6-16.88-7.35-7.18-13.16-15.53-17.44-25.06-4.27-9.54-6.49-19.76-6.67-30.67ZM1208.13,91.67c-6.35,0-12.52,2.05-18.52,6.15-5.99,4.08-10.94,9.35-14.85,15.79-3.91,6.45-5.95,13.21-6.13,20.29-.18,7.81,1.09,15.34,3.81,22.6,2.72,7.27,6.9,13.35,12.52,18.25,5.64,4.91,12.64,7.81,21,8.73,9.25.91,17.05-.55,23.42-4.35,6.36-3.82,11.26-9.04,14.71-15.67,3.46-6.64,5.36-13.9,5.73-21.79.36-7.9-.82-15.48-3.54-22.75-2.72-7.26-7.08-13.39-13.08-18.38-5.99-5-13.61-7.96-22.88-8.88h-2.19Z"/>
          <path class="cls-3" d="M1331.23,213.71c-1.27,1.64-3.08,2.55-5.44,2.73-2.36.18-4.81.45-7.35.81-2.36.18-5.14.36-8.31.54-3.18.18-6.18-.14-9-.96-2.81-.82-4.94-2.5-6.4-5.04-2.18-3.98-3.45-8.38-3.81-13.19-.36-4.82-.27-9.72.27-14.71.54-5,.81-9.68.81-14.04.18-8.54.32-17.03.42-25.48.09-8.44.23-16.93.42-25.46.18-16.89.22-33.82.13-50.79-.08-16.98-.31-33.92-.69-50.81,0-4.72,1-8.13,3-10.21,2-2.09,4.63-3.32,7.9-3.69,3.28-.36,6.82-.27,10.63.27,3.82.54,7.45,1,10.9,1.38,3.82.36,6.32,2.41,7.5,6.13,1.18,3.72,1.72,7.72,1.63,11.98-.08,4.27-.22,7.67-.4,10.21-.36,8.36-.59,16.81-.69,25.35-.08,8.53-.13,17.06-.13,25.58v124.23c0,2.17-.46,3.89-1.38,5.17Z"/>
          <path class="cls-3" d="M1375.07,213.71c-1.27,1.64-3.08,2.55-5.44,2.73-2.36.18-4.81.45-7.35.81-2.36.18-5.14.36-8.31.54-3.18.18-6.18-.14-9-.96-2.81-.82-4.94-2.5-6.4-5.04-2.18-3.98-3.45-8.38-3.81-13.19-.36-4.82-.27-9.72.27-14.71.54-5,.81-9.68.81-14.04.18-8.54.32-17.03.42-25.48.09-8.44.23-16.93.42-25.46.18-16.89.22-33.82.13-50.79-.08-16.98-.31-33.92-.69-50.81,0-4.72,1-8.13,3-10.21,2-2.09,4.63-3.32,7.9-3.69,3.28-.36,6.82-.27,10.63.27,3.82.54,7.45,1,10.9,1.38,3.82.36,6.32,2.41,7.5,6.13,1.18,3.72,1.72,7.72,1.63,11.98-.08,4.27-.22,7.67-.4,10.21-.36,8.36-.59,16.81-.69,25.35-.08,8.53-.13,17.06-.13,25.58v124.23c0,2.17-.46,3.89-1.38,5.17Z"/>
        </g>
      </g>
    </g>
  </g>
</svg>