<?xml version="1.0" encoding="UTF-8"?>
<svg id="Layer_2" xmlns="http://www.w3.org/2000/svg" xmlns:xlink="http://www.w3.org/1999/xlink" viewBox="0 0 287.28 288.94">
  <defs>
    <style>
      .cls-1 {
        fill: none;
      }

      .cls-2 {
        fill: #fbf7f0;
      }

      .cls-3 {
        fill: #202020;
      }

      .cls-4 {
        clip-path: url(#clippath);
      }
    </style>
    <clipPath id="clippath">
      <rect class="cls-1" y="100.94" width="182.02" height="188"/>
    </clipPath>
  </defs>
  <g id="Layer_1-2" data-name="Layer_1">
    <g>
      <path class="cls-2" d="M237.61,60.97c.51.05.99.18,1.46.4.48.22.93.52,1.36.9.43.38.83.83,1.2,1.35.36.53.7,1.11.99,1.76.29.65.54,1.35.74,2.1.21.74.36,1.53.47,2.35.11.82.17,1.66.19,2.52.01.86-.03,1.72-.11,2.58-.09.87-.22,1.72-.41,2.56-.19.84-.42,1.65-.69,2.43s-.58,1.52-.94,2.21c-.35.69-.73,1.33-1.15,1.9-.42.58-.86,1.08-1.32,1.53-.46.44-.95.8-1.44,1.08-.5.29-1,.48-1.51.6s-1.01.16-1.52.1c-.5-.05-.99-.19-1.46-.41s-.93-.52-1.35-.9c-.43-.38-.83-.83-1.2-1.35-.37-.53-.7-1.11-.99-1.76-.29-.65-.54-1.34-.75-2.09-.2-.75-.36-1.53-.47-2.35-.11-.82-.17-1.66-.18-2.52s.03-1.72.11-2.59c.09-.86.22-1.72.41-2.56s.41-1.65.69-2.43c.27-.78.58-1.52.93-2.21.35-.69.74-1.33,1.16-1.91.42-.57.85-1.08,1.32-1.52.46-.44.94-.8,1.44-1.08.49-.29,1-.49,1.51-.61.51-.11,1.02-.15,1.52-.1Z"/>
      <path class="cls-3" d="M235.24,90.05h-.7c-3.03-.23-5.58-2.56-7.21-6.05-2.79-6.28-1.86-15.58,2.32-21.16,2.33-3.03,5.11-4.65,8.14-4.42,3.02.23,5.58,2.56,7.21,6.05,2.79,6.28,1.86,15.58-2.33,21.16-2.09,3.03-4.65,4.42-7.44,4.42ZM237.1,63.77c-.93,0-2.09.7-3.03,2.09-3.02,3.95-3.72,11.4-1.63,15.81.7,1.63,1.86,2.79,2.79,2.79s2.09-.7,3.26-2.09c3.02-3.95,3.72-11.4,1.63-15.81-.93-1.63-1.86-2.56-3.02-2.79Z"/>
      <path class="cls-3" d="M139.19,143.07L7.1,105.4c-2.56-.69-2.79-3.02-.7-5.34L103.61,6.33c2.32-2.09,6.28-3.26,8.84-2.56l132.09,37.91c2.56.7,2.79,3.03.7,5.35l-97.21,93.72c-2.33,2.09-6.05,3.26-8.84,2.33Z"/>
      <path class="cls-2" d="M141.05,146.79c-.93,0-1.86,0-2.56-.46L6.17,108.42c-2.32-.7-3.95-2.33-4.42-4.19-.46-2.32.23-4.65,2.33-6.74L101.29,3.77c3.03-3.02,8.38-4.42,12.09-3.48l132.09,37.91c2.33.7,3.95,2.32,4.42,4.18.46,2.33-.23,4.65-2.33,6.74l-97.21,93.72c-2.32,2.56-6.04,3.95-9.3,3.95ZM8.96,102.37l131.16,37.67c1.4.47,3.95-.23,5.58-1.86l96.97-93.72L111.52,6.8c-1.4-.46-3.95.23-5.58,1.86L8.96,102.37Z"/>
      <path class="cls-3" d="M281.52,187.95l-98.83,95.35c-1.86,1.86-4.19.93-4.89-2.09l-32.56-130.93c-.7-3.03.23-6.98,2.09-8.84l98.83-95.34c1.86-1.86,4.19-.93,4.89,2.09l32.56,130.92c.7,2.79-.23,6.74-2.09,8.84Z"/>
      <path class="cls-2" d="M180.59,287.72c-.46,0-.93,0-1.4-.23-2.32-.7-3.95-2.56-4.65-5.35l-32.56-130.93c-1.16-4.18.23-9.53,3.02-12.09l98.84-95.35c1.63-1.63,3.95-2.32,5.81-1.63,2.32.7,3.95,2.56,4.65,5.35l32.56,130.93c1.16,4.18-.23,9.53-3.03,12.09l-98.83,95.35c-1.4,1.16-3.02,1.86-4.42,1.86ZM247.8,48.89l-98.14,94.88c-.93.93-1.86,3.72-1.16,5.81l32.56,130.93,98.14-94.88c.93-.93,1.86-3.72,1.17-5.82l-32.56-130.92Z"/>
      <path class="cls-3" d="M174.31,285.39l-132.09-37.9c-2.56-.7-5.35-3.72-6.05-6.98L3.61,109.58c-.7-3.02.7-4.88,3.26-4.19l132.09,37.91c2.56.7,5.35,3.72,6.04,6.98l32.56,130.93c.93,3.02-.69,4.88-3.26,4.18Z"/>
      <g class="cls-4">
        <path class="cls-2" d="M175.47,288.88c-.7,0-1.4,0-2.09-.23l-132.09-37.91c-3.72-1.17-7.44-5.12-8.38-9.3L.36,110.52c-.7-2.79-.23-5.35,1.63-6.98,1.63-1.4,3.72-1.86,6.05-1.16l132.09,37.91c3.72,1.16,7.44,5.11,8.37,9.3l32.56,130.93c.7,2.79.23,5.35-1.63,6.97-1.17.93-2.56,1.4-3.95,1.4ZM6.64,108.88l32.56,130.93c.46,2.09,2.56,4.19,3.72,4.42l131.39,37.68-32.56-130.93c-.46-2.09-2.56-4.19-3.72-4.42L6.64,108.88Z"/>
      </g>
      <path class="cls-2" d="M84.78,83.77c-.7-3.02-3.26-5.11-6.97-6.28-6.74-1.86-15.82.23-20.7,5.12-2.79,2.79-3.95,5.81-3.26,8.6.7,3.02,3.26,5.11,6.97,6.28,1.63.47,3.26.7,5.12.7,5.58,0,11.86-2.09,15.58-5.81,2.79-2.56,3.95-5.58,3.26-8.6Z"/>
      <path class="cls-2" d="M141.29,69.82c-.7-3.02-3.26-5.11-6.97-6.28-6.74-1.86-15.82.23-20.7,5.12-2.79,2.79-3.95,5.81-3.26,8.6.7,3.02,3.26,5.11,6.97,6.28,1.63.47,3.26.7,5.11.7,5.58,0,11.86-2.09,15.58-5.81,2.79-2.79,3.95-5.81,3.26-8.6Z"/>
      <path class="cls-2" d="M191.62,57.16c.12.49.16.99.11,1.52-.05.52-.18,1.05-.4,1.58s-.51,1.06-.88,1.58-.81,1.03-1.33,1.52c-.51.49-1.09.96-1.72,1.4s-1.32.85-2.06,1.23c-.74.38-1.51.72-2.31,1.02-.81.3-1.64.55-2.48.76-.84.2-1.69.36-2.55.47-.85.1-1.69.16-2.52.16-.83,0-1.63-.05-2.4-.15-.77-.1-1.49-.26-2.18-.45-.68-.2-1.31-.45-1.88-.74s-1.07-.63-1.51-1c-.43-.38-.79-.78-1.07-1.22-.28-.44-.48-.91-.6-1.4s-.16-.99-.11-1.52.18-1.05.4-1.58.51-1.06.88-1.58.81-1.03,1.33-1.52c.51-.49,1.09-.96,1.72-1.4s1.32-.85,2.06-1.23c.73-.38,1.51-.72,2.31-1.02.81-.3,1.64-.55,2.48-.76.84-.2,1.69-.36,2.55-.47.85-.1,1.69-.16,2.52-.16s1.63.05,2.4.15c.77.1,1.49.26,2.18.45.68.2,1.31.45,1.88.74s1.07.63,1.51,1c.43.38.79.78,1.07,1.22.28.44.48.91.6,1.4Z"/>
      <path class="cls-2" d="M175.47,70.98c-1.86,0-3.49-.23-5.12-.7-3.72-1.16-6.28-3.26-6.97-6.28-.7-3.03.46-6.05,3.26-8.6,4.89-4.89,13.95-6.98,20.7-5.12,3.72,1.17,6.28,3.26,6.97,6.28s-.46,6.05-3.26,8.6c-3.95,3.72-10,5.81-15.58,5.81Z"/>
      <path class="cls-2" d="M231.52,154.7c-.93-3.72-3.02-6.28-6.05-7.21-2.79-.93-6.05.23-8.83,2.79-4.89,4.89-7.68,13.72-5.82,20.46.93,3.72,3.03,6.28,6.05,6.98.7.23,1.4.23,1.86.23,2.32,0,4.65-1.16,6.97-3.26,4.89-4.19,7.44-13.26,5.81-20Z"/>
      <path class="cls-2" d="M244.54,100.28c-.93-3.72-3.03-6.28-6.05-7.21-2.79-.93-6.05.23-8.84,2.79-4.89,4.88-7.67,13.72-5.81,20.46.93,3.72,3.02,6.28,6.05,6.97.7.23,1.4.23,1.86.23,2.32,0,4.65-1.16,6.97-3.26,4.89-4.19,7.44-13.26,5.82-20Z"/>
      <path class="cls-2" d="M180.82,167.25c-.7,0-1.4,0-1.86-.23-2.79-.93-5.11-3.26-6.05-6.98-1.63-6.74.93-15.58,5.82-20.46,2.79-2.56,6.05-3.72,8.83-2.79,2.79.93,5.12,3.26,6.05,6.98,1.63,6.74-.93,15.58-5.81,20.46-2.09,2.09-4.65,3.02-6.97,3.02Z"/>
      <path class="cls-2" d="M211.29,214c-.93-3.72-3.03-6.28-6.05-6.98-2.79-.93-6.05.23-8.84,2.79-4.89,4.89-7.67,13.72-5.81,20.46.93,3.72,3.02,6.28,6.05,6.98.7.23,1.4.23,1.86.23,2.32,0,4.65-1.17,6.97-3.26,4.89-4.42,7.44-13.49,5.82-20.23Z"/>
      <path class="cls-2" d="M269.42,165.86c-.93-3.72-3.02-6.28-6.05-6.97-2.79-.93-6.05.23-8.83,2.79-4.89,4.88-7.68,13.72-5.82,20.46.93,3.72,3.03,6.28,6.05,7.21.7.23,1.4.23,1.86.23,2.33,0,4.65-1.17,6.98-3.26,4.89-4.65,7.67-13.72,5.81-20.47Z"/>
      <path class="cls-2" d="M64.31,156.33c-1.63-6.74-8.14-13.49-14.89-15.35-3.72-1.16-6.97-.46-9.3,1.63-2.09,2.09-2.79,5.35-1.86,9.07,1.63,6.74,8.14,13.48,14.89,15.35,1.16.23,2.32.46,3.49.46,2.32,0,4.18-.7,5.81-2.09,2.09-2.09,2.79-5.35,1.86-9.07Z"/>
      <path class="cls-2" d="M73.38,193.3c-1.63-6.74-8.14-13.49-14.88-15.35-3.72-1.16-6.98-.46-9.3,1.63-2.09,2.09-2.79,5.35-1.86,9.07,1.63,6.74,8.14,13.49,14.88,15.35,1.16.23,2.33.46,3.49.46,2.32,0,4.19-.7,5.81-2.09,2.33-2.09,2.79-5.34,1.86-9.07Z"/>
      <path class="cls-2" d="M82.45,229.11c-1.63-6.74-8.14-13.48-14.89-15.35-3.72-1.16-6.97-.46-9.3,1.63-2.09,2.09-2.79,5.35-1.86,9.07,1.63,6.74,8.14,13.49,14.88,15.35,1.17.23,2.33.46,3.49.46,2.33,0,4.19-.7,5.81-2.09,2.09-2.09,2.79-5.35,1.86-9.07Z"/>
      <path class="cls-2" d="M120.82,172.14c-1.63-6.74-8.14-13.49-14.89-15.35-3.72-1.16-6.97-.46-9.3,1.63-2.09,2.09-2.79,5.35-1.86,9.07,1.63,6.74,8.14,13.49,14.89,15.35,1.16.23,2.32.46,3.48.46,2.33,0,4.19-.7,5.82-2.09,2.09-2.09,2.79-5.35,1.86-9.07Z"/>
      <path class="cls-2" d="M130.13,209.11c-1.63-6.74-8.14-13.48-14.89-15.35-3.72-1.16-6.97-.46-9.3,1.63-2.09,2.09-2.79,5.35-1.86,9.07,1.63,6.74,8.14,13.49,14.89,15.35,1.16.23,2.32.47,3.48.47,2.33,0,4.19-.7,5.82-2.09,2.09-2.33,2.79-5.35,1.86-9.07Z"/>
      <path class="cls-2" d="M138.96,244.7c-1.63-6.74-8.14-13.49-14.89-15.35-3.72-1.16-6.97-.46-9.3,1.63-2.09,2.09-2.79,5.35-1.86,9.07,1.63,6.74,8.14,13.48,14.88,15.35,1.17.23,2.33.46,3.49.46,2.33,0,4.19-.7,5.81-2.09,2.09-2.09,2.79-5.35,1.86-9.07Z"/>
    </g>
  </g>
</svg>
